<?xml version="1.0" standalone="no"?>
<!DOCTYPE svg PUBLIC "-//W3C//DTD SVG 20010904//EN"
 "http://www.w3.org/TR/2001/REC-SVG-20010904/DTD/svg10.dtd">
<svg version="1.0" xmlns="http://www.w3.org/2000/svg"
 width="700.000000pt" height="700.000000pt" viewBox="0 0 700.000000 700.000000"
 preserveAspectRatio="xMidYMid meet">
<metadata>
Created by potrace 1.14, written by Peter Selinger 2001-2017
</metadata>
<g transform="translate(0.000000,700.000000) scale(0.100000,-0.100000)"
fill="#000000" stroke="none">
<path d="M1140 4190 c-51 -146 -146 -420 -212 -610 -66 -190 -140 -401 -163
-470 -24 -69 -78 -224 -120 -345 -42 -121 -81 -231 -85 -245 -5 -14 -36 -104
-70 -200 -86 -247 -110 -317 -110 -328 0 -6 209 -9 545 -9 l544 0 21 61 c11
34 42 126 69 206 l49 145 404 3 403 2 70 -207 71 -208 547 -1 c500 -1 547 0
542 15 -4 9 -13 34 -20 56 -13 42 -160 466 -215 620 -48 137 -120 345 -135
390 -7 22 -43 126 -80 230 -75 215 -153 438 -165 475 -4 14 -40 117 -80 230
-39 113 -90 259 -112 325 -23 66 -43 122 -45 125 -3 3 -355 5 -783 5 l-779 1
-91 -266z m1070 -1195 c0 -7 -69 -11 -199 -11 -131 1 -198 4 -196 11 19 62
152 468 172 524 l27 74 98 -294 c54 -162 98 -299 98 -304z"/>
<path d="M4734 4420 c-36 -14 -37 -16 -49 -200 -3 -52 -8 -120 -10 -150 -2
-30 -7 -93 -10 -140 -3 -47 -8 -110 -10 -140 -7 -94 -14 -191 -20 -280 -3 -47
-8 -110 -10 -140 -2 -30 -7 -93 -10 -140 -3 -47 -8 -110 -10 -140 -2 -30 -7
-100 -11 -155 -3 -55 -8 -106 -9 -115 -2 -8 -4 -42 -5 -75 -2 -58 -3 -59 -10
-20 -4 22 -11 85 -15 140 -4 55 -9 107 -10 116 -2 8 -6 55 -10 105 -4 49 -8
99 -10 112 -2 12 -7 62 -10 110 -4 48 -8 98 -10 110 -2 13 -7 60 -11 105 -3
45 -7 96 -9 112 -1 17 -6 68 -10 115 -12 148 -17 166 -50 174 -49 12 -70 -16
-79 -109 -3 -27 -9 -79 -15 -115 -5 -36 -12 -90 -16 -120 -3 -30 -8 -66 -10
-80 -2 -14 -7 -50 -10 -80 -4 -30 -8 -67 -11 -81 -2 -15 -6 -47 -9 -70 -12
-102 -37 -274 -40 -277 -1 -1 -6 28 -10 65 -4 37 -8 75 -10 84 -1 8 -6 41 -9
71 -4 31 -8 64 -10 74 -2 11 -7 45 -11 78 -3 32 -8 68 -10 80 -3 19 -9 59 -21
156 -30 237 -35 265 -56 283 -20 17 -51 16 -71 -3 -9 -8 -21 -53 -32 -120 -3
-19 -12 -66 -20 -105 -8 -38 -17 -86 -20 -105 -8 -47 -75 -393 -78 -405 -2 -5
-25 42 -51 105 -27 63 -55 123 -64 133 -29 33 -91 12 -92 -32 0 -7 41 -110 92
-228 98 -232 113 -252 161 -220 22 14 38 75 72 277 13 78 60 309 62 306 1 -1
5 -22 9 -47 3 -24 7 -53 8 -64 2 -11 7 -47 11 -80 4 -33 9 -68 11 -79 2 -10 6
-44 9 -75 3 -31 8 -67 11 -81 4 -24 8 -49 20 -145 2 -22 7 -51 9 -65 2 -14 7
-50 11 -80 4 -30 8 -66 10 -80 2 -14 6 -50 10 -80 7 -71 26 -100 64 -100 42 0
52 24 65 150 3 30 8 66 10 80 6 32 11 67 30 225 9 72 19 146 22 165 6 41 9 64
18 148 7 61 19 90 21 49 0 -23 13 -182 18 -232 2 -16 6 -66 10 -110 4 -44 9
-91 11 -105 2 -14 6 -64 10 -112 4 -49 8 -100 10 -115 2 -16 6 -66 10 -113 4
-47 8 -92 10 -100 2 -8 6 -60 10 -115 4 -55 8 -113 11 -130 2 -16 6 -68 10
-115 8 -106 7 -100 22 -127 9 -16 22 -23 41 -23 49 0 52 10 66 200 3 41 7 104
10 140 3 36 7 99 10 140 3 41 7 104 10 140 3 36 7 97 10 135 3 39 7 104 10
145 3 41 8 100 10 130 3 30 7 98 10 150 4 52 8 111 10 130 2 19 7 85 10 145 4
61 9 121 10 135 2 14 3 45 4 69 2 89 10 44 26 -149 3 -33 7 -86 10 -117 3 -32
7 -85 10 -118 2 -33 7 -89 10 -125 3 -36 8 -90 10 -120 2 -30 7 -82 10 -115
10 -112 15 -170 20 -240 2 -38 7 -90 10 -115 3 -25 8 -74 11 -110 3 -36 10
-70 15 -76 35 -43 98 -3 100 63 0 21 2 45 3 53 3 13 7 50 22 195 7 63 14 127
20 170 5 41 7 56 20 205 4 47 8 87 9 90 1 3 5 37 9 75 4 39 9 84 11 100 7 57
18 170 19 188 0 25 16 21 17 -5 2 -26 4 -43 13 -108 4 -25 11 -79 17 -120 6
-41 12 -86 14 -100 3 -14 7 -47 10 -75 3 -27 8 -57 10 -65 3 -8 7 -40 10 -70
3 -30 7 -66 10 -80 2 -14 6 -45 10 -70 8 -52 29 -80 60 -80 30 0 52 28 58 75
12 80 53 348 67 425 5 30 12 78 16 105 3 28 12 82 19 120 15 86 11 102 76
-295 28 -173 57 -325 65 -337 10 -16 24 -23 45 -23 24 0 32 6 43 33 8 17 17
52 21 77 4 25 9 54 12 65 2 11 8 43 13 70 6 28 12 60 15 73 12 56 16 72 30
147 40 206 37 193 47 160 5 -16 13 -46 18 -65 5 -19 11 -44 14 -55 3 -11 21
-81 40 -155 25 -94 41 -140 56 -152 21 -17 52 -14 69 6 5 6 35 99 67 206 31
107 60 198 64 203 3 4 32 -71 63 -167 62 -188 80 -216 124 -200 20 7 45 47
119 190 81 155 93 185 85 207 -13 34 -58 42 -84 13 -11 -11 -44 -66 -73 -121
-32 -61 -55 -94 -58 -85 -3 8 -32 99 -66 201 -33 103 -68 193 -78 202 -19 16
-45 15 -67 -3 -15 -12 -16 -17 -60 -165 -15 -49 -37 -124 -50 -165 l-23 -75
-10 40 c-6 22 -34 130 -62 240 -50 198 -66 235 -104 235 -39 0 -48 -26 -105
-310 -38 -187 -60 -276 -64 -260 -4 14 -20 111 -37 215 -18 105 -33 199 -35
210 -2 11 -8 47 -14 80 -15 86 -19 112 -27 163 -8 54 -36 86 -67 77 -32 -10
-44 -29 -52 -83 -3 -26 -8 -56 -10 -67 -2 -11 -7 -40 -10 -65 -3 -25 -15 -99
-25 -165 -11 -66 -22 -140 -25 -165 -3 -25 -8 -52 -10 -60 -2 -8 -6 -33 -10
-55 -15 -105 -24 -133 -26 -79 0 16 -2 38 -4 49 -2 11 -7 40 -10 65 -6 48 -41
299 -51 365 -3 22 -7 49 -9 60 -4 37 -17 130 -20 145 -1 8 -6 40 -11 70 -9 62
-8 59 -18 83 -6 11 -19 17 -42 17 -40 0 -50 -15 -58 -90 -4 -30 -9 -71 -11
-90 -2 -19 -7 -60 -10 -90 -10 -98 -16 -154 -20 -180 -2 -14 -7 -63 -11 -110
-4 -47 -8 -87 -9 -90 -1 -3 -5 -41 -9 -85 -4 -44 -9 -91 -11 -105 -6 -43 -18
-164 -19 -187 0 -28 -10 -20 -12 10 -7 96 -16 206 -19 227 -3 14 -7 63 -10
110 -4 47 -8 101 -10 120 -2 19 -6 71 -10 115 -4 44 -8 100 -10 125 -2 25 -7
81 -10 125 -4 44 -8 96 -10 115 -2 19 -6 73 -10 120 -3 47 -8 101 -10 120 -3
19 -7 70 -11 112 -8 110 -10 124 -18 136 -12 20 -40 30 -62 22z"/>
</g>
</svg>
